<!-- SPDX-FileCopyrightText: 2026 Matteo Beretta -->
<!-- SPDX-License-Identifier: LicenseRef-Wheelly-Brand -->
<svg xmlns="http://www.w3.org/2000/svg" width="504.76" height="158.8" viewBox="0 0 504.76 158.8" xmlns:c2pa="http://c2pa.org/manifest"><metadata><c2pa:manifest>AAAWgmp1bWIAAAAeanVtZGMycGEAEQAQgAAAqgA4m3EDYzJwYQAAABZcanVtYgAAAEdqdW1kYzJtYQARABCAAACqADibcQN1cm46YzJwYTpmZGRjYzlmMi0wN2Y0LTRjNDgtYjk3ZS1iNTBlNWVlZWFlODMAAAADl2p1bWIAAAApanVtZGMyYXMAEQAQgAAAqgA4m3EDYzJwYS5hc3NlcnRpb25zAAAAALxqdW1iAAAARGp1bWRjYm9yABEAEIAAAKoAOJtxE2MycGEuaW5ncmVkaWVudC52MwAAAAAYYzJzaPypxoSKhAWkSnv3KXaHhhcAAABwY2JvcqNpZGM6Zm9ybWF0bWltYWdlL3N2Zyt4bWxqaW5zdGFuY2VJRHgseG1wOmlpZDo1YmRkYjI1MS0xMThlLTQzNjktODY4NC05NmNlMThmZDg0Y2VscmVsYXRpb25zaGlwaHBhcmVudE9mAAAB4mp1bWIAAABBanVtZGNib3IAEQAQgAAAqgA4m3ETYzJwYS5hY3Rpb25zLnYyAAAAABhjMnNowJoMd8CI9TaIsneyyznZDwAAAZljYm9yomdhY3Rpb25zgqJmYWN0aW9ua2MycGEub3BlbmVkanBhcmFtZXRlcnOha2luZ3JlZGllbnRzgaJjdXJseC1zZWxmI2p1bWJmPWMycGEuYXNzZXJ0aW9ucy9jMnBhLmluZ3JlZGllbnQudjNkaGFzaFggTPQFw1/UIkBpkB/6guDPkmy/MtmfL6gk8rECGRqG9JekZmFjdGlvbngdY29tLmFudGhyb3BpYy5jbGF1ZGUucHJvdmlkZWRqcGFyYW1ldGVyc6F4H2NvbS5hbnRocm9waWMub3JpZ2luLWNvbmZpZGVuY2VndW5rbm93bmtkZXNjcmlwdGlvbnhmQ2xhdWRlIHByb3ZpZGVkIHRoaXMgZmlsZSBhdCB0aGUgcmVxdWVzdCBvZiBhIHVzZXIgYW5kIG1heSBoYXZlIGNyZWF0ZWQgb3IgbW9kaWZpZWQgdGhlIGZpbGUgY29udGVudHMubXNvZnR3YXJlQWdlbnShZG5hbWVmQ2xhdWRlcmFsbEFjdGlvbnNJbmNsdWRlZPUAAADIanVtYgAAAEBqdW1kY2JvcgARABCAAACqADibcRNjMnBhLmhhc2guZGF0YQAAAAAYYzJzaEp0Cv6p/ZMGmzsxqaBjVkMAAACAY2JvcqVjYWxnZnNoYTI1NmNwYWRNAAAAAAAAAAAAAAAAAGRoYXNoWCDNbLa9clOBRaAo9Dp6/7dNiZ0pv4SERgO0HVgmF1Ck22RuYW1lbmp1bWJmIG1hbmlmZXN0amV4Y2x1c2lvbnOBomVzdGFydBigZmxlbmd0aBkeBAAAAj5qdW1iAAAAJ2p1bWRjMmNsABEAEIAAAKoAOJtxA2MycGEuY2xhaW0udjIAAAACD2Nib3KlY2FsZ2ZzaGEyNTZpc2lnbmF0dXJleE1zZWxmI2p1bWJmPS9jMnBhL3VybjpjMnBhOmZkZGNjOWYyLTA3ZjQtNGM0OC1iOTdlLWI1MGU1ZWVlYWU4My9jMnBhLnNpZ25hdHVyZWppbnN0YW5jZUlEeCx4bXA6aWlkOjI0ZTFjYTRiLWE1MGYtNDZlYi1iZGQyLWQ5MDQzYTY3MTEwNnJjcmVhdGVkX2Fzc2VydGlvbnODomN1cmx4LXNlbGYjanVtYmY9YzJwYS5hc3NlcnRpb25zL2MycGEuaW5ncmVkaWVudC52M2RoYXNoWCBM9AXDX9QiQGmQH/qC4M+SbL8y2Z8vqCTysQIZGob0l6JjdXJseCpzZWxmI2p1bWJmPWMycGEuYXNzZXJ0aW9ucy9jMnBhLmFjdGlvbnMudjJkaGFzaFggtFPCyiOxu/bKW7uS/codQtBh6H2AQJWmFd5UJtqVfpuiY3VybHgpc2VsZiNqdW1iZj1jMnBhLmFzc2VydGlvbnMvYzJwYS5oYXNoLmRhdGFkaGFzaFgg65PzheOYGYvIUeKGJx2Fxou+t5PuuKl9YdbGv//G8gJ0Y2xhaW1fZ2VuZXJhdG9yX2luZm+jZG5hbWVvQW50aHJvcGljIEZpbGVzZ3ZlcnNpb25lMS4wLjBrc3BlY1ZlcnNpb25lMi40LjAAABA4anVtYgAAAChqdW1kYzJjcwARABCAAACqADibcQNjMnBhLnNpZ25hdHVyZQAAABAIY2JvctKEWQISogEmGCFZAgowggIGMIIBjaADAgECAhRA5aAK7sI50L64g/oGQgU9Z1UTADAKBggqhkjOPQQDAzBJMRcwFQYDVQQKEw5BbnRocm9waWMsIFBCQzEuMCwGA1UEAxMlQW50aHJvcGljIENvbnRlbnQgQ3JlZGVudGlhbHMgUm9vdCBDQTAeFw0yNjA4MDcxODQzNTZaFw0yODA4MDYxOTQzNTZaMEQxFzAVBgNVBAoTDkFudGhyb3BpYywgUEJDMSkwJwYDVQQDEyBBbnRocm9waWMgQ2xhdWRlIENvbnRlbnQgU2lnbmluZzBZMBMGByqGSM49AgEGCCqGSM49AwEHA0IABJh6CmvLUBgFFNU0vUKlOVtE6djd17L5SuwX0LemFisBM3dkd/3cyjxFA3Qo5S46fX0/ihY0VZ7mfb9KF703t5OjWDBWMA4GA1UdDwEB/wQEAwIHgDAVBgNVHSUEDjAMBgorBgEEAYPoXgIBMAwGA1UdEwEB/wQCMAAwHwYDVR0jBBgwFoAUzlHiBIFOZFsj+OPEz5o+nMHXXMIwCgYIKoZIzj0EAwMDZwAwZAIwMXMdFJ4BetLLVY7ORuE9noqbbAZOZn/aArXyTwFAZfKrPzxF2vPoJNf1+UCdg1XGAjBwX1zd9WGqYkqmL5SFqw1QySjr1zJfpJM9+1rdDwSPLMOPOjKuiXjoU/pUUeG9RwmhY3BhZFkNngAAAAAAAAAAAAAAAAAAAAAAAAAAAAAAAAAAAAAAAAAAAAAAAAAAAAAAAAAAAAAAAAAAAAAAAAAAAAAAAAAAAAAAAAAAAAAAAAAAAAAAAAAAAAAAAAAAAAAAAAAAAAAAAAAAAAAAAAAAAAAAAAAAAAAAAAAAAAAAAAAAAAAAAAAAAAAAAAAAAAAAAAAAAAAAAAAAAAAAAAAAAAAAAAAAAAAAAAAAAAAAAAAAAAAAAAAAAAAAAAAAAAAAAAAAAAAAAAAAAAAAAAAAAAAAAAAAAAAAAAAAAAAAAAAAAAAAAAAAAAAAAAAAAAAAAAAAAAAAAAAAAAAAAAAAAAAAAAAAAAAAAAAAAAAAAAAAAAAAAAAAAAAAAAAAAAAAAAAAAAAAAAAAAAAAAAAAAAAAAAAAAAAAAAAAAAAAAAAAAAAAAAAAAAAAAAAAAAAAAAAAAAAAAAAAAAAAAAAAAAAAAAAAAAAAAAAAAAAAAAAAAAAAAAAAAAAAAAAAAAAAAAAAAAAAAAAAAAAAAAAAAAAAAAAAAAAAAAAAAAAAAAAAAAAAAAAAAAAAAAAAAAAAAAAAAAAAAAAAAAAAAAAAAAAAAAAAAAAAAAAAAAAAAAAAAAAAAAAAAAAAAAAAAAAAAAAAAAAAAAAAAAAAAAAAAAAAAAAAAAAAAAAAAAAAAAAAAAAAAAAAAAAAAAAAAAAAAAAAAAAAAAAAAAAAAAAAAAAAAAAAAAAAAAAAAAAAAAAAAAAAAAAAAAAAAAAAAAAAAAAAAAAAAAAAAAAAAAAAAAAAAAAAAAAAAAAAAAAAAAAAAAAAAAAAAAAAAAAAAAAAAAAAAAAAAAAAAAAAAAAAAAAAAAAAAAAAAAAAAAAAAAAAAAAAAAAAAAAAAAAAAAAAAAAAAAAAAAAAAAAAAAAAAAAAAAAAAAAAAAAAAAAAAAAAAAAAAAAAAAAAAAAAAAAAAAAAAAAAAAAAAAAAAAAAAAAAAAAAAAAAAAAAAAAAAAAAAAAAAAAAAAAAAAAAAAAAAAAAAAAAAAAAAAAAAAAAAAAAAAAAAAAAAAAAAAAAAAAAAAAAAAAAAAAAAAAAAAAAAAAAAAAAAAAAAAAAAAAAAAAAAAAAAAAAAAAAAAAAAAAAAAAAAAAAAAAAAAAAAAAAAAAAAAAAAAAAAAAAAAAAAAAAAAAAAAAAAAAAAAAAAAAAAAAAAAAAAAAAAAAAAAAAAAAAAAAAAAAAAAAAAAAAAAAAAAAAAAAAAAAAAAAAAAAAAAAAAAAAAAAAAAAAAAAAAAAAAAAAAAAAAAAAAAAAAAAAAAAAAAAAAAAAAAAAAAAAAAAAAAAAAAAAAAAAAAAAAAAAAAAAAAAAAAAAAAAAAAAAAAAAAAAAAAAAAAAAAAAAAAAAAAAAAAAAAAAAAAAAAAAAAAAAAAAAAAAAAAAAAAAAAAAAAAAAAAAAAAAAAAAAAAAAAAAAAAAAAAAAAAAAAAAAAAAAAAAAAAAAAAAAAAAAAAAAAAAAAAAAAAAAAAAAAAAAAAAAAAAAAAAAAAAAAAAAAAAAAAAAAAAAAAAAAAAAAAAAAAAAAAAAAAAAAAAAAAAAAAAAAAAAAAAAAAAAAAAAAAAAAAAAAAAAAAAAAAAAAAAAAAAAAAAAAAAAAAAAAAAAAAAAAAAAAAAAAAAAAAAAAAAAAAAAAAAAAAAAAAAAAAAAAAAAAAAAAAAAAAAAAAAAAAAAAAAAAAAAAAAAAAAAAAAAAAAAAAAAAAAAAAAAAAAAAAAAAAAAAAAAAAAAAAAAAAAAAAAAAAAAAAAAAAAAAAAAAAAAAAAAAAAAAAAAAAAAAAAAAAAAAAAAAAAAAAAAAAAAAAAAAAAAAAAAAAAAAAAAAAAAAAAAAAAAAAAAAAAAAAAAAAAAAAAAAAAAAAAAAAAAAAAAAAAAAAAAAAAAAAAAAAAAAAAAAAAAAAAAAAAAAAAAAAAAAAAAAAAAAAAAAAAAAAAAAAAAAAAAAAAAAAAAAAAAAAAAAAAAAAAAAAAAAAAAAAAAAAAAAAAAAAAAAAAAAAAAAAAAAAAAAAAAAAAAAAAAAAAAAAAAAAAAAAAAAAAAAAAAAAAAAAAAAAAAAAAAAAAAAAAAAAAAAAAAAAAAAAAAAAAAAAAAAAAAAAAAAAAAAAAAAAAAAAAAAAAAAAAAAAAAAAAAAAAAAAAAAAAAAAAAAAAAAAAAAAAAAAAAAAAAAAAAAAAAAAAAAAAAAAAAAAAAAAAAAAAAAAAAAAAAAAAAAAAAAAAAAAAAAAAAAAAAAAAAAAAAAAAAAAAAAAAAAAAAAAAAAAAAAAAAAAAAAAAAAAAAAAAAAAAAAAAAAAAAAAAAAAAAAAAAAAAAAAAAAAAAAAAAAAAAAAAAAAAAAAAAAAAAAAAAAAAAAAAAAAAAAAAAAAAAAAAAAAAAAAAAAAAAAAAAAAAAAAAAAAAAAAAAAAAAAAAAAAAAAAAAAAAAAAAAAAAAAAAAAAAAAAAAAAAAAAAAAAAAAAAAAAAAAAAAAAAAAAAAAAAAAAAAAAAAAAAAAAAAAAAAAAAAAAAAAAAAAAAAAAAAAAAAAAAAAAAAAAAAAAAAAAAAAAAAAAAAAAAAAAAAAAAAAAAAAAAAAAAAAAAAAAAAAAAAAAAAAAAAAAAAAAAAAAAAAAAAAAAAAAAAAAAAAAAAAAAAAAAAAAAAAAAAAAAAAAAAAAAAAAAAAAAAAAAAAAAAAAAAAAAAAAAAAAAAAAAAAAAAAAAAAAAAAAAAAAAAAAAAAAAAAAAAAAAAAAAAAAAAAAAAAAAAAAAAAAAAAAAAAAAAAAAAAAAAAAAAAAAAAAAAAAAAAAAAAAAAAAAAAAAAAAAAAAAAAAAAAAAAAAAAAAAAAAAAAAAAAAAAAAAAAAAAAAAAAAAAAAAAAAAAAAAAAAAAAAAAAAAAAAAAAAAAAAAAAAAAAAAAAAAAAAAAAAAAAAAAAAAAAAAAAAAAAAAAAAAAAAAAAAAAAAAAAAAAAAAAAAAAAAAAAAAAAAAAAAAAAAAAAAAAAAAAAAAAAAAAAAAAAAAAAAAAAAAAAAAAAAAAAAAAAAAAAAAAAAAAAAAAAAAAAAAAAAAAAAAAAAAAAAAAAAAAAAAAAAAAAAAAAAAAAAAAAAAAAAAAAAAAAAAAAAAAAAAAAAAAAAAAAAAAAAAAAAAAAAAAAAAAAAAAAAAAAAAAAAAAAAAAAAAAAAAAAAAAAAAAAAAAAAAAAAAAAAAAAAAAAAAAAAAAAAAAAAAAAAAAAAAAAAAAAAAAAAAAAAAAAAAAAAAAAAAAAAAAAAAAAAAAAAAAAAAAAAAAAAAAAAAAAAAAAAAAAAAAAAAAAAAAAAAAAAAAAAAAAAAAAAAAAAAAAAAAAAAAAAAAAAAAAAAAAAAAAAAAAAAAAAAAAAAAAAAAAAAAAAAAAAAAAAAAAAAAAAAAAAAAAAAAAAAAAAAAAAAAAAAAAAAAAAAAAAAAAAAAAAAAAAAAAAAAAAAAAAAAAAAAAAAAAAAAAAAAAAAAAAAAAAAAAAAAAAAAAAAAAAAAAAAAAAAAAAAAAAAAAAAAAAAAAAAAAAAAAAAAAAAAAAAAAAAAAAAAAAAAAAAAAAAAAAAAAAAAAAAAAAAAAAAAAAAAAAAAAAAAAAAAAAAAAAAAAAAAAAAAAAAAAAAAAAAAAAAAAAAAAAAAAAAAAAAAAAAAAAAAAAAAAAAAAAAAAAAAAAAAAAAAAAAAAAAAAAAAAAAAAAAAAAAAAAAAAAAAAAAAAAAAAAAAAAAAAAAAAAAAAAAAAAAAAAAAAAAAAAAAAAAAAAAAAAAAAAAAAAAAAAAAAAAAAAAAAAAAAAAAAAAAAAAAAAAAAAAAAAAAAAAAAAAAAAAAAAAAAAAAAAAAAAAAAAAAAAAAAAAAAAAAAAAAAAAAAAAAAAAAAAAAAAAAAAAAAAAAAAAAAAAAAAAAAAAAAAAAAAAAAAAAAAAAAAAAAAAAAAAAAAAAAAAAAAAAAAAAAAAAAAAAAAAAAAAAAAAAAAAAAAAAAAAAAAAAAAAAAAAAAAAAAAAAAAAAAAAAAAAAAAAAAAAAAAAAAAAAAAAAAAAAAAAAAAAAAAAAAAAAAAAAAAAAAAAAAAAAAAAAAAAAAAAAAAAAAAAAAAAAAAAAAAAAAAAAAAAAAAAAAAAAAAAAAAAAAAAAAAAAAAAAAAAAAAAAAAAAAAAAAAAAAAAAAAAAAAAAAAAAAAAAAAAAAAAAAAAAAAAAAAAAAAAAAAAAAAAAAAAAAAAAAAAAAAAAAAAAAAAAAAAAAAAAAAAAAAAAAAAAAAAAAAAAAAAAAAAAAAAAAAAAAAAAAAAAAAAAAAAAAAAAAAAAAAAAAAAAAAAAAAAAAAAAAAAAAAAAAAAAAAAAAAAAAAAAAAAAAAAAAAAAAAAAAAAAAAAAAAAAAAAAAAAAAAAAAAAAAAAAAAAAAAAAAAAAAAAAAAAAAAAAAAAAAAAAAAAAAAAAAAAAAAAAAAAAAAAAAAAAAAAAAAAAAAAAAAAAAAAAAAAAAAAAAAAAAAAAAAAAAAAAAAAAAAAAAAAAAAAAAAAAAAAAAAAAAAAAAAAAAAAAAAAAAAAAAAAAAAAAAAAAAAAAAAAAAAAAAAAAAAAAAAAAAAAAAAAAAAAAAAAAAAAAAAAAAAAAAAAAAAAAAAAAAPZYQDAUE40DR9QdObOmfSb5pRJmfm0YMTb9LeJLmcCH3bQ68i5wwjpGh2jybnbV+uz7+pIEb0XtaR3VuLLyoyCHOEc=</c2pa:manifest></metadata>
  <g transform="translate(0,0) scale(0.8) translate(-7.5,-12.5)">
    <path d="M199,100 A104,104 0 0 1 76.9,202.4 L79.7,186.7 A88,88 0 0 0 183,100 Z" fill="none" stroke="#F7F6F3" stroke-width="11" stroke-linejoin="round"></path>
    <g fill="none" stroke="#F7F6F3" stroke-linecap="round" stroke-linejoin="round">
      <circle cx="95" cy="100" r="80" stroke-width="14"></circle>
      <circle cx="122" cy="72" r="26" stroke-width="12" fill="#EFA00B"></circle>
      <path d="M46,74 q16,-18 32,1" stroke-width="13"></path>
      <path d="M52,124 q42,38 82,0" stroke-width="15"></path>
    </g>
  </g>
  <path transform="translate(184.212,101.292) scale(0.88)" d="M28.700 0.700L28.700 0.700Q26.100 0.700 24.600-0.300Q23.100-1.300 22.450-2.600Q21.800-3.900 21.600-4.400L21.600-4.400L2.800-58.900Q1.500-63.100 2.400-65.150Q3.300-67.200 7.600-68.600L7.600-68.600Q10.400-69.500 12.150-69.400Q13.900-69.300 15.050-68Q16.200-66.700 17.100-63.900L17.100-63.900L29.600-26.800L40.100-63.400Q40.400-64.400 41.050-65.700Q41.700-67 43.200-68Q44.700-69 47.400-69L47.400-69Q50.500-69 52.050-67.900Q53.600-66.800 54.200-65.500Q54.800-64.200 55.100-63.500L55.100-63.500L65.700-26.600L78.100-63.800Q79-66.600 80.150-67.950Q81.300-69.300 83.150-69.500Q85-69.700 87.800-68.700L87.800-68.700Q90.800-67.600 92-66.400Q93.200-65.200 93.250-63.450Q93.300-61.700 92.500-58.900L92.500-58.900L73.700-4.400Q73.500-3.800 72.850-2.550Q72.200-1.300 70.750-0.300Q69.300 0.700 66.500 0.700L66.500 0.700Q63.800 0.700 62.200-0.500Q60.600-1.700 59.950-3.050Q59.300-4.400 59.100-4.900L59.100-4.900L47.600-42.200L36.100-4.900Q36-4.400 35.300-3Q34.600-1.600 33.050-0.450Q31.500 0.700 28.700 0.700Z M105.364 0.900L105.364 0.900Q101.764 0.900 100.164-0.150Q98.564-1.200 98.214-2.950Q97.864-4.700 97.864-6.700L97.864-6.700L97.864-64.300Q97.864-66.300 98.264-68Q98.664-69.700 100.264-70.750Q101.864-71.800 105.464-71.800L105.464-71.800Q109.164-71.800 110.714-70.700Q112.264-69.600 112.614-67.900Q112.964-66.200 112.964-64.200L112.964-64.200L112.964-43.800Q114.764-45.700 117.614-47.400Q120.464-49.100 124.364-49.100L124.364-49.100Q130.564-49.100 135.514-45.950Q140.464-42.800 143.414-37.300Q146.364-31.800 146.364-24.700L146.364-24.700L146.364-6.600Q146.364-4.600 145.964-2.900Q145.564-1.200 144.064-0.150Q142.564 0.900 138.764 0.900L138.764 0.900Q135.264 0.900 133.614-0.150Q131.964-1.200 131.614-2.950Q131.264-4.700 131.264-6.700L131.264-6.700L131.264-24.800Q131.264-27.700 130.264-29.750Q129.264-31.800 127.314-33Q125.364-34.200 122.564-34.200L122.564-34.200Q118.864-34.200 116.114-31.950Q113.364-29.700 112.964-26.500L112.964-26.500L112.964-6.600Q112.964-4.600 112.564-2.900Q112.164-1.200 110.614-0.150Q109.064 0.900 105.364 0.900Z M177.327 1.800L177.327 1.800Q170.327 1.800 165.277-0.500Q160.227-2.800 157.027-6.550Q153.827-10.300 152.277-14.900Q150.727-19.500 150.727-24.100L150.727-24.100Q150.727-31.600 154.127-37.400Q157.527-43.200 163.527-46.550Q169.527-49.900 177.327-49.900L177.327-49.900Q183.127-49.900 187.377-48.050Q191.627-46.200 194.377-43.250Q197.127-40.300 198.477-36.900Q199.827-33.500 199.827-30.400L199.827-30.400Q199.827-24.900 197.177-22.250Q194.527-19.600 190.427-19.600L190.427-19.600L166.627-19.600Q166.827-17 168.477-15.200Q170.127-13.400 172.627-12.400Q175.127-11.400 177.927-11.400L177.927-11.400Q180.327-11.400 182.127-11.650Q183.927-11.900 185.227-12.350Q186.527-12.800 187.627-13.250Q188.727-13.700 189.577-14Q190.427-14.300 191.227-14.400L191.227-14.400Q192.727-14.500 193.977-13.550Q195.227-12.600 196.227-10.700L196.227-10.700Q196.927-9.600 197.177-8.600Q197.427-7.600 197.427-6.600L197.427-6.600Q197.427-4.200 194.977-2.300Q192.527-0.400 188.077 0.700Q183.627 1.800 177.327 1.800ZM166.627-27.800L166.627-27.800L182.427-27.800Q184.027-27.800 184.777-28.350Q185.527-28.900 185.527-30.500L185.527-30.500Q185.527-32.300 184.427-33.650Q183.327-35 181.477-35.750Q179.627-36.500 177.227-36.500L177.227-36.500Q174.127-36.500 171.727-35.300Q169.327-34.100 167.977-32.100Q166.627-30.100 166.627-27.800Z M229.891 1.800L229.891 1.800Q222.891 1.800 217.841-0.500Q212.791-2.800 209.591-6.550Q206.391-10.300 204.841-14.900Q203.291-19.500 203.291-24.100L203.291-24.100Q203.291-31.600 206.691-37.400Q210.091-43.200 216.091-46.550Q222.091-49.900 229.891-49.900L229.891-49.900Q235.691-49.900 239.941-48.050Q244.191-46.200 246.941-43.250Q249.691-40.300 251.041-36.900Q252.391-33.500 252.391-30.400L252.391-30.400Q252.391-24.900 249.741-22.250Q247.091-19.600 242.991-19.600L242.991-19.600L219.191-19.600Q219.391-17 221.041-15.200Q222.691-13.400 225.191-12.400Q227.691-11.400 230.491-11.400L230.491-11.400Q232.891-11.400 234.691-11.650Q236.491-11.900 237.791-12.350Q239.091-12.800 240.191-13.250Q241.291-13.700 242.141-14Q242.991-14.300 243.791-14.400L243.791-14.400Q245.291-14.500 246.541-13.550Q247.791-12.600 248.791-10.700L248.791-10.700Q249.491-9.600 249.741-8.600Q249.991-7.600 249.991-6.600L249.991-6.600Q249.991-4.200 247.541-2.300Q245.091-0.400 240.641 0.700Q236.191 1.800 229.891 1.800ZM219.191-27.800L219.191-27.800L234.991-27.800Q236.591-27.800 237.341-28.350Q238.091-28.900 238.091-30.500L238.091-30.500Q238.091-32.300 236.991-33.650Q235.891-35 234.041-35.750Q232.191-36.500 229.791-36.500L229.791-36.500Q226.691-36.500 224.291-35.300Q221.891-34.100 220.541-32.100Q219.191-30.100 219.191-27.800Z M301.254 0.800L301.254 0.800Q297.554 0.800 294.504 0.050Q291.454-0.700 289.204-2.250Q286.954-3.800 285.404-6.100Q283.854-8.400 283.104-11.400Q282.354-14.400 282.354-18.200L282.354-18.200L282.254-64.500Q282.254-66.500 282.604-68.200Q282.954-69.900 284.554-71Q286.154-72.100 289.854-72.100L289.854-72.100Q293.454-72.100 295.004-71Q296.554-69.900 296.954-68.200Q297.354-66.500 297.354-64.500L297.354-64.500L297.354-17.900Q297.354-16.900 297.554-16.200Q297.754-15.500 298.204-15.050Q298.654-14.600 299.454-14.400Q300.254-14.200 301.454-14.200L301.454-14.200Q304.154-14.200 305.854-13.500Q307.554-12.800 308.304-11.100Q309.054-9.400 309.054-6.700L309.054-6.700Q309.054-4.100 308.204-2.450Q307.354-0.800 305.654 0Q303.954 0.800 301.254 0.800ZM274.254 0.800L274.254 0.800Q270.654 0.800 267.904 0.100Q265.154-0.600 263.154-2.050Q261.154-3.500 259.854-5.750Q258.554-8 257.904-11.100Q257.254-14.200 257.254-18.200L257.254-18.200L257.254-64.500Q257.254-66.500 257.654-68.200Q258.054-69.900 259.604-71Q261.154-72.100 264.854-72.100L264.854-72.100Q268.454-72.100 270.004-71Q271.554-69.900 271.954-68.200Q272.354-66.500 272.354-64.500L272.354-64.500L272.354-17.900Q272.354-16.600 272.654-15.800Q272.954-15 273.454-14.600Q273.954-14.200 274.254-14.200L274.254-14.200Q276.554-14.200 277.854-13.500Q279.154-12.800 279.754-11.100Q280.354-9.400 280.354-6.700L280.354-6.700Q280.354-4.100 279.704-2.450Q279.054-0.800 277.704 0Q276.354 0.800 274.254 0.800Z M328.118 21.100L328.118 21.100Q324.018 19.300 323.368 17.100Q322.718 14.900 324.418 11.200L324.418 11.200L349.518-44.900Q351.218-48.800 353.268-49.550Q355.318-50.300 359.418-48.700L359.418-48.700Q363.418-46.800 364.068-44.700Q364.718-42.600 363.118-39.100L363.118-39.100L337.918 17.400Q336.218 21.300 334.218 22.100Q332.218 22.900 328.118 21.100ZM343.218-19.400L336.818-2.200L313.318-38Q311.118-41.300 311.568-43.500Q312.018-45.700 315.518-48L315.518-48Q319.418-50.400 321.568-49.850Q323.718-49.300 325.918-45.900L325.918-45.900L343.218-19.400Z" fill="#F7F6F3"></path>
</svg>