<svg xmlns="http://www.w3.org/2000/svg" width="760" height="806" viewBox="0 0 760 806" role="img">
<title>Power · TMC2209, terminal blocks, motor and ground node</title><desc>The four phases, the 12 V branch and the star ground. Not a block diagram but a LIST OF WIRES: the two columns are the two ends, and a component is on one side or the other depending on the wire. Holes on the grid printed on the board.</desc>
<style>
text{font-family:ui-sans-serif,system-ui,-apple-system,"Segoe UI",Roboto,Helvetica,Arial,sans-serif;fill:#2A2A28}
.th{font-size:14px;font-weight:600}
.ts{font-size:11.5px;fill:#55534E}
.tn{font-size:10px;fill:#7A786F}
.box{fill:#F6F5F1;stroke:#B0AEA6;stroke-width:1}
.res{fill:#E4F1EB;stroke:#3E8C74;stroke-width:1}
.filo{stroke-width:2.2;fill:none;stroke-linecap:round}
.alone{stroke-width:5.4;fill:none;stroke:#FFFFFF;stroke-linecap:round}
</style>
<rect width="760" height="806" fill="#FFFFFF"/>
<rect class="box" x="60.0" y="74.0" width="200.0" height="522.0" rx="8"/>
<text class="th" x="160.0" y="62.0" text-anchor="middle">from this end</text>
<rect class="box" x="500.0" y="74.0" width="200.0" height="522.0" rx="8"/>
<text class="th" x="600.0" y="62.0" text-anchor="middle">to this other</text>
<path class="alone" d="M260.0,100.0 Q380.0,113.2 500.0,100.0"/>
<path class="filo" d="M260.0,100.0 Q380.0,113.2 500.0,100.0" stroke="#1E1E1C"/>
<text class="ts" x="250.0" y="104.0" text-anchor="end">A1 · L03</text>
<text class="ts" x="510.0" y="104.0">A+ · X07</text>
<text class="tn" x="380.0" y="120.0" text-anchor="middle">phase A+, black wire</text>
<path class="alone" d="M260.0,146.0 Q380.0,159.2 500.0,146.0"/>
<path class="filo" d="M260.0,146.0 Q380.0,159.2 500.0,146.0" stroke="#5E9022"/>
<text class="ts" x="250.0" y="150.0" text-anchor="end">A2 · K03</text>
<text class="ts" x="510.0" y="150.0">A− · X06</text>
<text class="tn" x="380.0" y="166.0" text-anchor="middle">phase A−, green wire</text>
<path class="alone" d="M260.0,192.0 Q380.0,205.2 500.0,192.0"/>
<path class="filo" d="M260.0,192.0 Q380.0,205.2 500.0,192.0" stroke="#C0392B"/>
<text class="ts" x="250.0" y="196.0" text-anchor="end">B1 · M03</text>
<text class="ts" x="510.0" y="196.0">B+ · X05</text>
<text class="tn" x="380.0" y="212.0" text-anchor="middle">phase B+, red wire</text>
<path class="alone" d="M260.0,238.0 Q380.0,251.2 500.0,238.0"/>
<path class="filo" d="M260.0,238.0 Q380.0,251.2 500.0,238.0" stroke="#2F6FC4"/>
<text class="ts" x="250.0" y="242.0" text-anchor="end">B2 · N03</text>
<text class="ts" x="510.0" y="242.0">B− · X04</text>
<text class="tn" x="380.0" y="258.0" text-anchor="middle">phase B−, blue wire</text>
<path class="alone" d="M260.0,284.0 Q380.0,297.2 500.0,284.0"/>
<path class="filo" d="M260.0,284.0 Q380.0,297.2 500.0,284.0" stroke="#E0457B"/>
<text class="ts" x="250.0" y="288.0" text-anchor="end">VM · P03</text>
<text class="ts" x="510.0" y="288.0">C1 + · S03</text>
<text class="tn" x="380.0" y="304.0" text-anchor="middle">VM to + of C1: SHORT lead, the loop that matters</text>
<path class="alone" d="M260.0,330.0 Q380.0,343.2 500.0,330.0"/>
<path class="filo" d="M260.0,330.0 Q380.0,343.2 500.0,330.0" stroke="#E0457B"/>
<text class="ts" x="250.0" y="334.0" text-anchor="end">C1 + · S03</text>
<text class="ts" x="510.0" y="334.0">12V + · U10</text>
<text class="tn" x="380.0" y="350.0" text-anchor="middle">from + of C1 to + of the 12 V block</text>
<path class="alone" d="M260.0,376.0 Q380.0,389.2 500.0,376.0"/>
<path class="filo" d="M260.0,376.0 Q380.0,389.2 500.0,376.0" stroke="#E0457B"/>
<text class="ts" x="250.0" y="380.0" text-anchor="end">C2 + · S05</text>
<text class="ts" x="510.0" y="380.0">12V + · U10</text>
<text class="tn" x="380.0" y="396.0" text-anchor="middle">C2 in parallel on the input, optional</text>
<path class="alone" d="M260.0,422.0 Q380.0,435.2 500.0,422.0"/>
<path class="filo" d="M260.0,422.0 Q380.0,435.2 500.0,422.0" stroke="#3A3A38"/>
<text class="ts" x="250.0" y="426.0" text-anchor="end">GND · O03</text>
<text class="ts" x="510.0" y="426.0">C1 − · S02</text>
<text class="tn" x="380.0" y="442.0" text-anchor="middle">driver power GND to − of C1: SHORT lead</text>
<path class="alone" d="M260.0,468.0 Q380.0,481.2 500.0,468.0"/>
<path class="filo" d="M260.0,468.0 Q380.0,481.2 500.0,468.0" stroke="#8A4F0E"/>
<text class="ts" x="250.0" y="472.0" text-anchor="end">C1 − · S02</text>
<text class="ts" x="510.0" y="472.0">12V − · U08</text>
<text class="tn" x="380.0" y="488.0" text-anchor="middle">from the node to − of the block: first star wire</text>
<path class="alone" d="M260.0,514.0 Q380.0,527.2 500.0,514.0"/>
<path class="filo" d="M260.0,514.0 Q380.0,527.2 500.0,514.0" stroke="#8A4F0E"/>
<text class="ts" x="250.0" y="518.0" text-anchor="end">C1 − · S02</text>
<text class="ts" x="510.0" y="518.0">GND · I03</text>
<text class="tn" x="380.0" y="534.0" text-anchor="middle">from the node to the driver logic GND: second wire</text>
<path class="alone" d="M260.0,560.0 Q380.0,573.2 500.0,560.0"/>
<path class="filo" d="M260.0,560.0 Q380.0,573.2 500.0,560.0" stroke="#8A4F0E"/>
<text class="ts" x="250.0" y="564.0" text-anchor="end">C1 − · S02</text>
<text class="ts" x="510.0" y="564.0">GND · B08</text>
<text class="tn" x="380.0" y="580.0" text-anchor="middle">from the node to the XIAO GND: third wire</text>
<text class="tn" x="60.0" y="630.0">THE GROUND NODE IS THE NEGATIVE OF C1, IN S02, and THREE WIRES AND ONLY THREE leave it.</text>
<text class="tn" x="60.0" y="648.0">No branch connects to another branch: two grounds touching in two places close</text>
<text class="tn" x="60.0" y="666.0">a loop, and part of the motor return runs along the USB shield to the camera.</text>
<text class="tn" x="60.0" y="684.0">The two leads of C1 are cut short, straddling the VM and GND pins of the socket:</text>
<text class="tn" x="60.0" y="702.0">the area of that loop counts more than any shielding downstream, and comes before</text>
<text class="tn" x="60.0" y="720.0">the space it takes. That is why C1 stayed here and C2 moved.</text>
<text class="tn" x="60.0" y="738.0">The phase colours are the motor's, not a choice: black and green one phase,</text>
<text class="tn" x="60.0" y="756.0">red and blue the other. Swapping the two wires of ONE phase reverses the rotation.</text>
</svg>
